<?xml version="1.0" encoding="UTF-8" standalone="no"?>
<!DOCTYPE svg PUBLIC "-//W3C//DTD SVG 1.1//EN"
 "http://www.w3.org/Graphics/SVG/1.1/DTD/svg11.dtd">
<!-- Generated by graphviz version 2.40.1 (20161225.0304)
 -->
<!-- Title: dependencies Pages: 1 -->
<svg width="504pt" height="284pt"
 viewBox="0.00 0.00 504.00 284.00" xmlns="http://www.w3.org/2000/svg" xmlns:xlink="http://www.w3.org/1999/xlink">
<g id="graph0" class="graph" transform="scale(1 1) rotate(0) translate(4 280)">
<title>dependencies</title>
<polygon fill="#ffffff" stroke="transparent" points="-4,4 -4,-280 500,-280 500,4 -4,4"/>
<text text-anchor="start" x="227.0091" y="-42.4" font-family="sans-serif" font-weight="bold" font-size="14.00" fill="#000000">Legend</text>
<polygon fill="#ffffb3" stroke="transparent" points="14,-10 14,-30 34,-30 34,-10 14,-10"/>
<text text-anchor="start" x="37.629" y="-15.4" font-family="sans-serif" font-size="14.00" fill="#000000"> &#160;Declarations</text>
<polygon fill="#8dd3c7" stroke="transparent" points="127,-10 127,-30 147,-30 147,-10 127,-10"/>
<text text-anchor="start" x="150.7251" y="-15.4" font-family="sans-serif" font-size="14.00" fill="#000000"> &#160;Module</text>
<polygon fill="#80b1d3" stroke="transparent" points="213,-10 213,-30 233,-30 233,-10 213,-10"/>
<text text-anchor="start" x="236.7812" y="-15.4" font-family="sans-serif" font-size="14.00" fill="#000000"> &#160;Bootstrap</text>
<polygon fill="#fdb462" stroke="transparent" points="310,-10 310,-30 330,-30 330,-10 310,-10"/>
<text text-anchor="start" x="333.6732" y="-15.4" font-family="sans-serif" font-size="14.00" fill="#000000"> &#160;Providers</text>
<polygon fill="#fb8072" stroke="transparent" points="406,-10 406,-30 426,-30 426,-10 406,-10"/>
<text text-anchor="start" x="429.7258" y="-15.4" font-family="sans-serif" font-size="14.00" fill="#000000"> &#160;Exports</text>
<g id="clust1" class="cluster">
<title>cluster_StarRatingModule</title>
<polygon fill="none" stroke="#000000" stroke-dasharray="1,5" points="93,-70 93,-268 403,-268 403,-70 93,-70"/>
</g>
<g id="clust2" class="cluster">
<title>cluster_StarRatingModule_declarations</title>
<polygon fill="none" stroke="#000000" points="237,-78 237,-130 395,-130 395,-78 237,-78"/>
</g>
<g id="clust4" class="cluster">
<title>cluster_StarRatingModule_imports</title>
<polygon fill="none" stroke="#000000" points="101,-78 101,-130 229,-130 229,-78 101,-78"/>
</g>
<g id="clust5" class="cluster">
<title>cluster_StarRatingModule_exports</title>
<polygon fill="none" stroke="#000000" points="168,-208 168,-260 328,-260 328,-208 168,-208"/>
</g>
<!-- StarRatingComponent -->
<g id="node1" class="node">
<title>StarRatingComponent</title>
<polygon fill="#ffffb3" stroke="#000000" points="386.7134,-122 245.2866,-122 245.2866,-86 386.7134,-86 386.7134,-122"/>
<text text-anchor="middle" x="316" y="-99.8" font-family="Times,serif" font-size="14.00" fill="#000000">StarRatingComponent</text>
</g>
<!-- StarRatingModule -->
<g id="node2" class="node">
<title>StarRatingModule</title>
<polygon fill="#8dd3c7" stroke="#000000" points="307.9314,-187 304.9314,-191 283.9314,-191 280.9314,-187 188.0686,-187 188.0686,-151 307.9314,-151 307.9314,-187"/>
<text text-anchor="middle" x="248" y="-164.8" font-family="Times,serif" font-size="14.00" fill="#000000">StarRatingModule</text>
</g>
<!-- StarRatingComponent&#45;&gt;StarRatingModule -->
<g id="edge1" class="edge">
<title>StarRatingComponent&#45;&gt;StarRatingModule</title>
<path fill="none" stroke="#000000" d="M276.5544,-122.1061C276.5544,-122.1061 276.5544,-140.991 276.5544,-140.991"/>
<polygon fill="#000000" stroke="#000000" points="273.0544,-140.9909 276.5544,-150.991 280.0544,-140.991 273.0544,-140.9909"/>
</g>
<!-- StarRatingComponent  -->
<g id="node4" class="node">
<title>StarRatingComponent </title>
<polygon fill="#fb8072" stroke="#000000" points="320.2135,-252 175.7865,-252 175.7865,-216 320.2135,-216 320.2135,-252"/>
<text text-anchor="middle" x="248" y="-229.8" font-family="Times,serif" font-size="14.00" fill="#000000">StarRatingComponent </text>
</g>
<!-- StarRatingModule&#45;&gt;StarRatingComponent  -->
<g id="edge3" class="edge">
<title>StarRatingModule&#45;&gt;StarRatingComponent </title>
<path fill="none" stroke="#000000" stroke-dasharray="5,2" d="M248,-187.1061C248,-187.1061 248,-205.991 248,-205.991"/>
<polygon fill="#000000" stroke="#000000" points="244.5001,-205.9909 248,-215.991 251.5001,-205.991 244.5001,-205.9909"/>
</g>
<!-- CommonModule -->
<g id="node3" class="node">
<title>CommonModule</title>
<polygon fill="#8dd3c7" stroke="#000000" points="220.6681,-122 217.6681,-126 196.6681,-126 193.6681,-122 109.3319,-122 109.3319,-86 220.6681,-86 220.6681,-122"/>
<text text-anchor="middle" x="165" y="-99.8" font-family="Times,serif" font-size="14.00" fill="#000000">CommonModule</text>
</g>
<!-- CommonModule&#45;&gt;StarRatingModule -->
<g id="edge2" class="edge">
<title>CommonModule&#45;&gt;StarRatingModule</title>
<path fill="none" stroke="#000000" d="M204.5593,-122.1061C204.5593,-122.1061 204.5593,-140.991 204.5593,-140.991"/>
<polygon fill="#000000" stroke="#000000" points="201.0593,-140.9909 204.5593,-150.991 208.0593,-140.991 201.0593,-140.9909"/>
</g>
</g>
</svg>
