<?xml version="1.0" encoding="UTF-8" standalone="no"?>
<!DOCTYPE svg PUBLIC "-//W3C//DTD SVG 1.1//EN"
 "http://www.w3.org/Graphics/SVG/1.1/DTD/svg11.dtd">
<!-- Generated by graphviz version 2.40.1 (20161225.0304)
 -->
<!-- Title: dependencies Pages: 1 -->
<svg width="2605pt" height="290pt"
 viewBox="0.00 0.00 2605.00 290.00" xmlns="http://www.w3.org/2000/svg" xmlns:xlink="http://www.w3.org/1999/xlink">
<g id="graph0" class="graph" transform="scale(1 1) rotate(0) translate(4 286)">
<title>dependencies</title>
<polygon fill="#ffffff" stroke="transparent" points="-4,4 -4,-286 2601,-286 2601,4 -4,4"/>
<text text-anchor="start" x="1277.5091" y="-42.4" font-family="sans-serif" font-weight="bold" font-size="14.00" fill="#000000">Legend</text>
<polygon fill="#ffffb3" stroke="transparent" points="1064.5,-10 1064.5,-30 1084.5,-30 1084.5,-10 1064.5,-10"/>
<text text-anchor="start" x="1088.129" y="-15.4" font-family="sans-serif" font-size="14.00" fill="#000000"> &#160;Declarations</text>
<polygon fill="#8dd3c7" stroke="transparent" points="1177.5,-10 1177.5,-30 1197.5,-30 1197.5,-10 1177.5,-10"/>
<text text-anchor="start" x="1201.2251" y="-15.4" font-family="sans-serif" font-size="14.00" fill="#000000"> &#160;Module</text>
<polygon fill="#80b1d3" stroke="transparent" points="1263.5,-10 1263.5,-30 1283.5,-30 1283.5,-10 1263.5,-10"/>
<text text-anchor="start" x="1287.2812" y="-15.4" font-family="sans-serif" font-size="14.00" fill="#000000"> &#160;Bootstrap</text>
<polygon fill="#fdb462" stroke="transparent" points="1360.5,-10 1360.5,-30 1380.5,-30 1380.5,-10 1360.5,-10"/>
<text text-anchor="start" x="1384.1732" y="-15.4" font-family="sans-serif" font-size="14.00" fill="#000000"> &#160;Providers</text>
<polygon fill="#fb8072" stroke="transparent" points="1456.5,-10 1456.5,-30 1476.5,-30 1476.5,-10 1456.5,-10"/>
<text text-anchor="start" x="1480.2258" y="-15.4" font-family="sans-serif" font-size="14.00" fill="#000000"> &#160;Exports</text>
<g id="clust1" class="cluster">
<title>cluster_AppModule</title>
<polygon fill="none" stroke="#000000" stroke-dasharray="1,5" points="8,-70 8,-274 1831,-274 1831,-70 8,-70"/>
</g>
<g id="clust2" class="cluster">
<title>cluster_AppModule_declarations</title>
<polygon fill="none" stroke="#000000" points="16,-78 16,-130 974,-130 974,-78 16,-78"/>
</g>
<g id="clust9" class="cluster">
<title>cluster_AppModule_imports</title>
<polygon fill="none" stroke="#000000" points="982,-78 982,-130 1823,-130 1823,-78 982,-78"/>
</g>
<g id="clust11" class="cluster">
<title>cluster_AppModule_bootstrap</title>
<polygon fill="none" stroke="#000000" points="925,-214 925,-266 1049,-266 1049,-214 925,-214"/>
</g>
<g id="clust13" class="cluster">
<title>cluster_AppRoutingModule</title>
<polygon fill="none" stroke="#000000" stroke-dasharray="1,5" points="1839,-138 1839,-206 2175,-206 2175,-138 1839,-138"/>
</g>
<g id="clust15" class="cluster">
<title>cluster_AppRoutingModule_imports</title>
<polygon fill="none" stroke="#000000" points="1973,-146 1973,-198 2167,-198 2167,-146 1973,-146"/>
</g>
<g id="clust16" class="cluster">
<title>cluster_AppRoutingModule_exports</title>
<polygon fill="none" stroke="#000000" points="1847,-146 1847,-198 1965,-198 1965,-146 1847,-146"/>
</g>
<g id="clust19" class="cluster">
<title>cluster_StarRatingModule</title>
<polygon fill="none" stroke="#000000" stroke-dasharray="1,5" points="2183,-70 2183,-274 2589,-274 2589,-70 2183,-70"/>
</g>
<g id="clust20" class="cluster">
<title>cluster_StarRatingModule_declarations</title>
<polygon fill="none" stroke="#000000" points="2327,-78 2327,-130 2581,-130 2581,-78 2327,-78"/>
</g>
<g id="clust22" class="cluster">
<title>cluster_StarRatingModule_imports</title>
<polygon fill="none" stroke="#000000" points="2191,-78 2191,-130 2319,-130 2319,-78 2191,-78"/>
</g>
<g id="clust23" class="cluster">
<title>cluster_StarRatingModule_exports</title>
<polygon fill="none" stroke="#000000" points="2198,-214 2198,-266 2458,-266 2458,-214 2198,-214"/>
</g>
<!-- AppComponent -->
<g id="node1" class="node">
<title>AppComponent</title>
<polygon fill="#ffffb3" stroke="#000000" points="965.9399,-122 860.0601,-122 860.0601,-86 965.9399,-86 965.9399,-122"/>
<text text-anchor="middle" x="913" y="-99.8" font-family="Times,serif" font-size="14.00" fill="#000000">AppComponent</text>
</g>
<!-- AppModule -->
<g id="node7" class="node">
<title>AppModule</title>
<polygon fill="#8dd3c7" stroke="#000000" points="1028.6571,-190 1025.6571,-194 1004.6571,-194 1001.6571,-190 945.3429,-190 945.3429,-154 1028.6571,-154 1028.6571,-190"/>
<text text-anchor="middle" x="987" y="-167.8" font-family="Times,serif" font-size="14.00" fill="#000000">AppModule</text>
</g>
<!-- AppComponent&#45;&gt;AppModule -->
<g id="edge1" class="edge">
<title>AppComponent&#45;&gt;AppModule</title>
<path fill="none" stroke="#000000" d="M955.4457,-122.2228C955.4457,-122.2228 955.4457,-143.7269 955.4457,-143.7269"/>
<polygon fill="#000000" stroke="#000000" points="951.9457,-143.7269 955.4457,-153.7269 958.9457,-143.727 951.9457,-143.7269"/>
</g>
<!-- FormTestComponent -->
<g id="node2" class="node">
<title>FormTestComponent</title>
<polygon fill="#ffffb3" stroke="#000000" points="841.7688,-122 706.2312,-122 706.2312,-86 841.7688,-86 841.7688,-122"/>
<text text-anchor="middle" x="774" y="-99.8" font-family="Times,serif" font-size="14.00" fill="#000000">FormTestComponent</text>
</g>
<!-- FormTestComponent&#45;&gt;AppModule -->
<g id="edge2" class="edge">
<title>FormTestComponent&#45;&gt;AppModule</title>
<path fill="none" stroke="#000000" d="M774,-122.027C774,-138.3976 774,-160 774,-160 774,-160 935.1722,-160 935.1722,-160"/>
<polygon fill="#000000" stroke="#000000" points="935.1722,-163.5001 945.1722,-160 935.1722,-156.5001 935.1722,-163.5001"/>
</g>
<!-- MyFormComponent -->
<g id="node3" class="node">
<title>MyFormComponent</title>
<polygon fill="#ffffb3" stroke="#000000" points="688.6108,-122 557.3892,-122 557.3892,-86 688.6108,-86 688.6108,-122"/>
<text text-anchor="middle" x="623" y="-99.8" font-family="Times,serif" font-size="14.00" fill="#000000">MyFormComponent</text>
</g>
<!-- MyFormComponent&#45;&gt;AppModule -->
<g id="edge3" class="edge">
<title>MyFormComponent&#45;&gt;AppModule</title>
<path fill="none" stroke="#000000" d="M623,-122.2667C623,-140.5552 623,-166 623,-166 623,-166 935.2446,-166 935.2446,-166"/>
<polygon fill="#000000" stroke="#000000" points="935.2446,-169.5001 945.2446,-166 935.2445,-162.5001 935.2446,-169.5001"/>
</g>
<!-- MyEventsComponent -->
<g id="node4" class="node">
<title>MyEventsComponent</title>
<polygon fill="#ffffb3" stroke="#000000" points="539.3795,-122 400.6205,-122 400.6205,-86 539.3795,-86 539.3795,-122"/>
<text text-anchor="middle" x="470" y="-99.8" font-family="Times,serif" font-size="14.00" fill="#000000">MyEventsComponent</text>
</g>
<!-- MyEventsComponent&#45;&gt;AppModule -->
<g id="edge4" class="edge">
<title>MyEventsComponent&#45;&gt;AppModule</title>
<path fill="none" stroke="#000000" d="M470,-122.2228C470,-142.3652 470,-172 470,-172 470,-172 935.1297,-172 935.1297,-172"/>
<polygon fill="#000000" stroke="#000000" points="935.1297,-175.5001 945.1297,-172 935.1296,-168.5001 935.1297,-175.5001"/>
</g>
<!-- MyConfigComponent -->
<g id="node5" class="node">
<title>MyConfigComponent</title>
<polygon fill="#ffffb3" stroke="#000000" points="382.6652,-122 243.3348,-122 243.3348,-86 382.6652,-86 382.6652,-122"/>
<text text-anchor="middle" x="313" y="-99.8" font-family="Times,serif" font-size="14.00" fill="#000000">MyConfigComponent</text>
</g>
<!-- MyConfigComponent&#45;&gt;AppModule -->
<g id="edge5" class="edge">
<title>MyConfigComponent&#45;&gt;AppModule</title>
<path fill="none" stroke="#000000" d="M313,-122.2921C313,-144.2057 313,-178 313,-178 313,-178 935.0929,-178 935.0929,-178"/>
<polygon fill="#000000" stroke="#000000" points="935.093,-181.5001 945.0929,-178 935.0929,-174.5001 935.093,-181.5001"/>
</g>
<!-- BindingsConfigFormComponent -->
<g id="node6" class="node">
<title>BindingsConfigFormComponent</title>
<polygon fill="#ffffb3" stroke="#000000" points="225.6164,-122 24.3836,-122 24.3836,-86 225.6164,-86 225.6164,-122"/>
<text text-anchor="middle" x="125" y="-99.8" font-family="Times,serif" font-size="14.00" fill="#000000">BindingsConfigFormComponent</text>
</g>
<!-- BindingsConfigFormComponent&#45;&gt;AppModule -->
<g id="edge6" class="edge">
<title>BindingsConfigFormComponent&#45;&gt;AppModule</title>
<path fill="none" stroke="#000000" d="M125,-122.1532C125,-145.7566 125,-184 125,-184 125,-184 935.1326,-184 935.1326,-184"/>
<polygon fill="#000000" stroke="#000000" points="935.1327,-187.5001 945.1326,-184 935.1326,-180.5001 935.1327,-187.5001"/>
</g>
<!-- AppComponent  -->
<g id="node14" class="node">
<title>AppComponent </title>
<polygon fill="#80b1d3" stroke="#000000" points="1041.439,-258 932.561,-258 932.561,-222 1041.439,-222 1041.439,-258"/>
<text text-anchor="middle" x="987" y="-235.8" font-family="Times,serif" font-size="14.00" fill="#000000">AppComponent </text>
</g>
<!-- AppModule&#45;&gt;AppComponent  -->
<g id="edge13" class="edge">
<title>AppModule&#45;&gt;AppComponent </title>
<path fill="none" stroke="#000000" stroke-dasharray="1,5" d="M987,-190.2228C987,-190.2228 987,-211.7269 987,-211.7269"/>
<polygon fill="#000000" stroke="#000000" points="983.5001,-211.7269 987,-221.7269 990.5001,-211.727 983.5001,-211.7269"/>
</g>
<!-- BrowserModule -->
<g id="node8" class="node">
<title>BrowserModule</title>
<polygon fill="#8dd3c7" stroke="#000000" points="1668.4734,-122 1665.4734,-126 1644.4734,-126 1641.4734,-122 1561.5266,-122 1561.5266,-86 1668.4734,-86 1668.4734,-122"/>
<text text-anchor="middle" x="1615" y="-99.8" font-family="Times,serif" font-size="14.00" fill="#000000">BrowserModule</text>
</g>
<!-- BrowserModule&#45;&gt;AppModule -->
<g id="edge7" class="edge">
<title>BrowserModule&#45;&gt;AppModule</title>
<path fill="none" stroke="#000000" d="M1615,-122.2921C1615,-144.2057 1615,-178 1615,-178 1615,-178 1038.6912,-178 1038.6912,-178"/>
<polygon fill="#000000" stroke="#000000" points="1038.6912,-174.5001 1028.6912,-178 1038.6911,-181.5001 1038.6912,-174.5001"/>
</g>
<!-- FormsModule -->
<g id="node9" class="node">
<title>FormsModule</title>
<polygon fill="#8dd3c7" stroke="#000000" points="1543.8288,-122 1540.8288,-126 1519.8288,-126 1516.8288,-122 1448.1712,-122 1448.1712,-86 1543.8288,-86 1543.8288,-122"/>
<text text-anchor="middle" x="1496" y="-99.8" font-family="Times,serif" font-size="14.00" fill="#000000">FormsModule</text>
</g>
<!-- FormsModule&#45;&gt;AppModule -->
<g id="edge8" class="edge">
<title>FormsModule&#45;&gt;AppModule</title>
<path fill="none" stroke="#000000" d="M1496,-122.2228C1496,-142.3652 1496,-172 1496,-172 1496,-172 1039.0866,-172 1039.0866,-172"/>
<polygon fill="#000000" stroke="#000000" points="1039.0867,-168.5001 1029.0866,-172 1039.0866,-175.5001 1039.0867,-168.5001"/>
</g>
<!-- HttpModule -->
<g id="node10" class="node">
<title>HttpModule</title>
<polygon fill="#8dd3c7" stroke="#000000" points="1430.4387,-122 1427.4387,-126 1406.4387,-126 1403.4387,-122 1345.5613,-122 1345.5613,-86 1430.4387,-86 1430.4387,-122"/>
<text text-anchor="middle" x="1388" y="-99.8" font-family="Times,serif" font-size="14.00" fill="#000000">HttpModule</text>
</g>
<!-- HttpModule&#45;&gt;AppModule -->
<g id="edge9" class="edge">
<title>HttpModule&#45;&gt;AppModule</title>
<path fill="none" stroke="#000000" d="M1388,-122.2667C1388,-140.5552 1388,-166 1388,-166 1388,-166 1038.7792,-166 1038.7792,-166"/>
<polygon fill="#000000" stroke="#000000" points="1038.7793,-162.5001 1028.7792,-166 1038.7792,-169.5001 1038.7793,-162.5001"/>
</g>
<!-- StarRatingModule.forRoot() -->
<g id="node11" class="node">
<title>StarRatingModule.forRoot()</title>
<polygon fill="#8dd3c7" stroke="#000000" points="1327.8003,-122 1324.8003,-126 1303.8003,-126 1300.8003,-122 1152.1997,-122 1152.1997,-86 1327.8003,-86 1327.8003,-122"/>
<text text-anchor="middle" x="1240" y="-99.8" font-family="Times,serif" font-size="14.00" fill="#000000">StarRatingModule.forRoot()</text>
</g>
<!-- StarRatingModule.forRoot()&#45;&gt;AppModule -->
<g id="edge10" class="edge">
<title>StarRatingModule.forRoot()&#45;&gt;AppModule</title>
<path fill="none" stroke="#000000" d="M1240,-122.027C1240,-138.3976 1240,-160 1240,-160 1240,-160 1038.7778,-160 1038.7778,-160"/>
<polygon fill="#000000" stroke="#000000" points="1038.7778,-156.5001 1028.7778,-160 1038.7778,-163.5001 1038.7778,-156.5001"/>
</g>
<!-- AppRoutingModule -->
<g id="node12" class="node">
<title>AppRoutingModule</title>
<polygon fill="#8dd3c7" stroke="#000000" points="1815.2744,-122 1812.2744,-126 1791.2744,-126 1788.2744,-122 1686.7256,-122 1686.7256,-86 1815.2744,-86 1815.2744,-122"/>
<text text-anchor="middle" x="1751" y="-99.8" font-family="Times,serif" font-size="14.00" fill="#000000">AppRoutingModule</text>
</g>
<!-- AppRoutingModule&#45;&gt;AppModule -->
<g id="edge11" class="edge">
<title>AppRoutingModule&#45;&gt;AppModule</title>
<path fill="none" stroke="#000000" d="M1751,-122.1532C1751,-145.7566 1751,-184 1751,-184 1751,-184 1038.891,-184 1038.891,-184"/>
<polygon fill="#000000" stroke="#000000" points="1038.891,-180.5001 1028.891,-184 1038.8909,-187.5001 1038.891,-180.5001"/>
</g>
<!-- RouterModule  -->
<g id="node16" class="node">
<title>RouterModule </title>
<polygon fill="#fb8072" stroke="#000000" points="1956.6523,-190 1855.3477,-190 1855.3477,-154 1956.6523,-154 1956.6523,-190"/>
<text text-anchor="middle" x="1906" y="-167.8" font-family="Times,serif" font-size="14.00" fill="#000000">RouterModule </text>
</g>
<!-- AppRoutingModule&#45;&gt;RouterModule  -->
<g id="edge15" class="edge">
<title>AppRoutingModule&#45;&gt;RouterModule </title>
<path fill="none" stroke="#000000" stroke-dasharray="5,2" d="M1815.3874,-110C1857.9734,-110 1906,-110 1906,-110 1906,-110 1906,-143.7333 1906,-143.7333"/>
<polygon fill="#000000" stroke="#000000" points="1902.5001,-143.7333 1906,-153.7333 1909.5001,-143.7333 1902.5001,-143.7333"/>
</g>
<!-- ReactiveFormsModule -->
<g id="node13" class="node">
<title>ReactiveFormsModule</title>
<polygon fill="#8dd3c7" stroke="#000000" points="1134.3047,-122 1131.3047,-126 1110.3047,-126 1107.3047,-122 989.6953,-122 989.6953,-86 1134.3047,-86 1134.3047,-122"/>
<text text-anchor="middle" x="1062" y="-99.8" font-family="Times,serif" font-size="14.00" fill="#000000">ReactiveFormsModule</text>
</g>
<!-- ReactiveFormsModule&#45;&gt;AppModule -->
<g id="edge12" class="edge">
<title>ReactiveFormsModule&#45;&gt;AppModule</title>
<path fill="none" stroke="#000000" d="M1009.338,-122.2228C1009.338,-122.2228 1009.338,-143.7269 1009.338,-143.7269"/>
<polygon fill="#000000" stroke="#000000" points="1005.8381,-143.7269 1009.338,-153.7269 1012.8381,-143.727 1005.8381,-143.7269"/>
</g>
<!-- RouterModule.forRoot(args) -->
<g id="node15" class="node">
<title>RouterModule.forRoot(args)</title>
<polygon fill="#8dd3c7" stroke="#000000" points="2158.8419,-190 2155.8419,-194 2134.8419,-194 2131.8419,-190 1981.1581,-190 1981.1581,-154 2158.8419,-154 2158.8419,-190"/>
<text text-anchor="middle" x="2070" y="-167.8" font-family="Times,serif" font-size="14.00" fill="#000000">RouterModule.forRoot(args)</text>
</g>
<!-- RouterModule.forRoot(args)&#45;&gt;AppRoutingModule -->
<g id="edge14" class="edge">
<title>RouterModule.forRoot(args)&#45;&gt;AppRoutingModule</title>
<path fill="none" stroke="#000000" d="M2070,-153.7079C2070,-131.7943 2070,-98 2070,-98 2070,-98 1825.5544,-98 1825.5544,-98"/>
<polygon fill="#000000" stroke="#000000" points="1825.5544,-94.5001 1815.5544,-98 1825.5544,-101.5001 1825.5544,-94.5001"/>
</g>
<!-- StarRatingComponent -->
<g id="node17" class="node">
<title>StarRatingComponent</title>
<polygon fill="#ffffb3" stroke="#000000" points="2572.7134,-122 2431.2866,-122 2431.2866,-86 2572.7134,-86 2572.7134,-122"/>
<text text-anchor="middle" x="2502" y="-99.8" font-family="Times,serif" font-size="14.00" fill="#000000">StarRatingComponent</text>
</g>
<!-- StarRatingModule -->
<g id="node18" class="node">
<title>StarRatingModule</title>
<polygon fill="#8dd3c7" stroke="#000000" points="2373.9314,-190 2370.9314,-194 2349.9314,-194 2346.9314,-190 2254.0686,-190 2254.0686,-154 2373.9314,-154 2373.9314,-190"/>
<text text-anchor="middle" x="2314" y="-167.8" font-family="Times,serif" font-size="14.00" fill="#000000">StarRatingModule</text>
</g>
<!-- StarRatingComponent&#45;&gt;StarRatingModule -->
<g id="edge16" class="edge">
<title>StarRatingComponent&#45;&gt;StarRatingModule</title>
<path fill="none" stroke="#000000" d="M2440.875,-122.2228C2440.875,-142.3652 2440.875,-172 2440.875,-172 2440.875,-172 2383.7223,-172 2383.7223,-172"/>
<polygon fill="#000000" stroke="#000000" points="2383.7224,-168.5001 2373.7223,-172 2383.7223,-175.5001 2383.7224,-168.5001"/>
</g>
<!-- StarRatingComponent  -->
<g id="node20" class="node">
<title>StarRatingComponent </title>
<polygon fill="#fb8072" stroke="#000000" points="2450.2135,-258 2305.7865,-258 2305.7865,-222 2450.2135,-222 2450.2135,-258"/>
<text text-anchor="middle" x="2378" y="-235.8" font-family="Times,serif" font-size="14.00" fill="#000000">StarRatingComponent </text>
</g>
<!-- StarRatingModule&#45;&gt;StarRatingComponent  -->
<g id="edge18" class="edge">
<title>StarRatingModule&#45;&gt;StarRatingComponent </title>
<path fill="none" stroke="#000000" stroke-dasharray="5,2" d="M2339.6794,-190.2228C2339.6794,-190.2228 2339.6794,-211.7269 2339.6794,-211.7269"/>
<polygon fill="#000000" stroke="#000000" points="2336.1794,-211.7269 2339.6794,-221.7269 2343.1794,-211.727 2336.1794,-211.7269"/>
</g>
<!-- EXPORTS  -->
<g id="node22" class="node">
<title>EXPORTS </title>
<polygon fill="#fb8072" stroke="#000000" points="2287.7207,-258 2206.2793,-258 2206.2793,-222 2287.7207,-222 2287.7207,-258"/>
<text text-anchor="middle" x="2247" y="-235.8" font-family="Times,serif" font-size="14.00" fill="#000000">EXPORTS </text>
</g>
<!-- StarRatingModule&#45;&gt;EXPORTS  -->
<g id="edge21" class="edge">
<title>StarRatingModule&#45;&gt;EXPORTS </title>
<path fill="none" stroke="#000000" stroke-dasharray="5,2" d="M2271.0724,-190.2228C2271.0724,-190.2228 2271.0724,-211.7269 2271.0724,-211.7269"/>
<polygon fill="#000000" stroke="#000000" points="2267.5725,-211.7269 2271.0724,-221.7269 2274.5725,-211.727 2267.5725,-211.7269"/>
</g>
<!-- CommonModule -->
<g id="node19" class="node">
<title>CommonModule</title>
<polygon fill="#8dd3c7" stroke="#000000" points="2310.6681,-122 2307.6681,-126 2286.6681,-126 2283.6681,-122 2199.3319,-122 2199.3319,-86 2310.6681,-86 2310.6681,-122"/>
<text text-anchor="middle" x="2255" y="-99.8" font-family="Times,serif" font-size="14.00" fill="#000000">CommonModule</text>
</g>
<!-- CommonModule&#45;&gt;StarRatingModule -->
<g id="edge17" class="edge">
<title>CommonModule&#45;&gt;StarRatingModule</title>
<path fill="none" stroke="#000000" d="M2291.9841,-122.2228C2291.9841,-122.2228 2291.9841,-143.7269 2291.9841,-143.7269"/>
<polygon fill="#000000" stroke="#000000" points="2288.4842,-143.7269 2291.9841,-153.7269 2295.4842,-143.727 2288.4842,-143.7269"/>
</g>
<!-- CommonModule&#45;&gt;StarRatingModule -->
<g id="edge20" class="edge">
<title>CommonModule&#45;&gt;StarRatingModule</title>
<path fill="none" stroke="#000000" d="M2273.1344,-122.2228C2273.1344,-122.2228 2273.1344,-143.7269 2273.1344,-143.7269"/>
<polygon fill="#000000" stroke="#000000" points="2269.6345,-143.7269 2273.1344,-153.7269 2276.6345,-143.727 2269.6345,-143.7269"/>
</g>
<!-- EXPORTS -->
<g id="node21" class="node">
<title>EXPORTS</title>
<polygon fill="#ffffb3" stroke="#000000" points="2413.2205,-122 2334.7795,-122 2334.7795,-86 2413.2205,-86 2413.2205,-122"/>
<text text-anchor="middle" x="2374" y="-99.8" font-family="Times,serif" font-size="14.00" fill="#000000">EXPORTS</text>
</g>
<!-- EXPORTS&#45;&gt;StarRatingModule -->
<g id="edge19" class="edge">
<title>EXPORTS&#45;&gt;StarRatingModule</title>
<path fill="none" stroke="#000000" d="M2354.3026,-122.2228C2354.3026,-122.2228 2354.3026,-143.7269 2354.3026,-143.7269"/>
<polygon fill="#000000" stroke="#000000" points="2350.8027,-143.7269 2354.3026,-153.7269 2357.8027,-143.727 2350.8027,-143.7269"/>
</g>
</g>
</svg>
