<?xml version="1.0" encoding="UTF-8" standalone="no"?>
<!DOCTYPE svg PUBLIC "-//W3C//DTD SVG 1.1//EN"
 "http://www.w3.org/Graphics/SVG/1.1/DTD/svg11.dtd">
<!-- Generated by graphviz version 2.40.1 (20161225.0304)
 -->
<!-- Title: dependencies Pages: 1 -->
<svg width="1847pt" height="284pt"
 viewBox="0.00 0.00 1847.00 284.00" xmlns="http://www.w3.org/2000/svg" xmlns:xlink="http://www.w3.org/1999/xlink">
<g id="graph0" class="graph" transform="scale(1 1) rotate(0) translate(4 280)">
<title>dependencies</title>
<polygon fill="#ffffff" stroke="transparent" points="-4,4 -4,-280 1843,-280 1843,4 -4,4"/>
<text text-anchor="start" x="898.5091" y="-42.4" font-family="sans-serif" font-weight="bold" font-size="14.00" fill="#000000">Legend</text>
<polygon fill="#ffffb3" stroke="transparent" points="685.5,-10 685.5,-30 705.5,-30 705.5,-10 685.5,-10"/>
<text text-anchor="start" x="709.129" y="-15.4" font-family="sans-serif" font-size="14.00" fill="#000000"> &#160;Declarations</text>
<polygon fill="#8dd3c7" stroke="transparent" points="798.5,-10 798.5,-30 818.5,-30 818.5,-10 798.5,-10"/>
<text text-anchor="start" x="822.2251" y="-15.4" font-family="sans-serif" font-size="14.00" fill="#000000"> &#160;Module</text>
<polygon fill="#80b1d3" stroke="transparent" points="884.5,-10 884.5,-30 904.5,-30 904.5,-10 884.5,-10"/>
<text text-anchor="start" x="908.2812" y="-15.4" font-family="sans-serif" font-size="14.00" fill="#000000"> &#160;Bootstrap</text>
<polygon fill="#fdb462" stroke="transparent" points="981.5,-10 981.5,-30 1001.5,-30 1001.5,-10 981.5,-10"/>
<text text-anchor="start" x="1005.1732" y="-15.4" font-family="sans-serif" font-size="14.00" fill="#000000"> &#160;Providers</text>
<polygon fill="#fb8072" stroke="transparent" points="1077.5,-10 1077.5,-30 1097.5,-30 1097.5,-10 1077.5,-10"/>
<text text-anchor="start" x="1101.2258" y="-15.4" font-family="sans-serif" font-size="14.00" fill="#000000"> &#160;Exports</text>
<g id="clust1" class="cluster">
<title>cluster_AppModule</title>
<polygon fill="none" stroke="#000000" stroke-dasharray="1,5" points="8,-70 8,-268 1831,-268 1831,-70 8,-70"/>
</g>
<g id="clust2" class="cluster">
<title>cluster_AppModule_declarations</title>
<polygon fill="none" stroke="#000000" points="865,-78 865,-130 1823,-130 1823,-78 865,-78"/>
</g>
<g id="clust9" class="cluster">
<title>cluster_AppModule_imports</title>
<polygon fill="none" stroke="#000000" points="16,-78 16,-130 857,-130 857,-78 16,-78"/>
</g>
<g id="clust11" class="cluster">
<title>cluster_AppModule_bootstrap</title>
<polygon fill="none" stroke="#000000" points="823,-208 823,-260 947,-260 947,-208 823,-208"/>
</g>
<!-- AppComponent -->
<g id="node1" class="node">
<title>AppComponent</title>
<polygon fill="#ffffb3" stroke="#000000" points="1814.9399,-122 1709.0601,-122 1709.0601,-86 1814.9399,-86 1814.9399,-122"/>
<text text-anchor="middle" x="1762" y="-99.8" font-family="Times,serif" font-size="14.00" fill="#000000">AppComponent</text>
</g>
<!-- AppModule -->
<g id="node7" class="node">
<title>AppModule</title>
<polygon fill="#8dd3c7" stroke="#000000" points="926.6571,-187 923.6571,-191 902.6571,-191 899.6571,-187 843.3429,-187 843.3429,-151 926.6571,-151 926.6571,-187"/>
<text text-anchor="middle" x="885" y="-164.8" font-family="Times,serif" font-size="14.00" fill="#000000">AppModule</text>
</g>
<!-- AppComponent&#45;&gt;AppModule -->
<g id="edge1" class="edge">
<title>AppComponent&#45;&gt;AppModule</title>
<path fill="none" stroke="#000000" d="M1762,-122.2479C1762,-145.0179 1762,-181 1762,-181 1762,-181 936.7095,-181 936.7095,-181"/>
<polygon fill="#000000" stroke="#000000" points="936.7096,-177.5001 926.7095,-181 936.7095,-184.5001 936.7096,-177.5001"/>
</g>
<!-- FormTestComponent -->
<g id="node2" class="node">
<title>FormTestComponent</title>
<polygon fill="#ffffb3" stroke="#000000" points="1690.7688,-122 1555.2312,-122 1555.2312,-86 1690.7688,-86 1690.7688,-122"/>
<text text-anchor="middle" x="1623" y="-99.8" font-family="Times,serif" font-size="14.00" fill="#000000">FormTestComponent</text>
</g>
<!-- FormTestComponent&#45;&gt;AppModule -->
<g id="edge2" class="edge">
<title>FormTestComponent&#45;&gt;AppModule</title>
<path fill="none" stroke="#000000" d="M1623,-122.2843C1623,-143.3211 1623,-175 1623,-175 1623,-175 936.7926,-175 936.7926,-175"/>
<polygon fill="#000000" stroke="#000000" points="936.7926,-171.5001 926.7926,-175 936.7926,-178.5001 936.7926,-171.5001"/>
</g>
<!-- MyFormComponent -->
<g id="node3" class="node">
<title>MyFormComponent</title>
<polygon fill="#ffffb3" stroke="#000000" points="1537.6108,-122 1406.3892,-122 1406.3892,-86 1537.6108,-86 1537.6108,-122"/>
<text text-anchor="middle" x="1472" y="-99.8" font-family="Times,serif" font-size="14.00" fill="#000000">MyFormComponent</text>
</g>
<!-- MyFormComponent&#45;&gt;AppModule -->
<g id="edge3" class="edge">
<title>MyFormComponent&#45;&gt;AppModule</title>
<path fill="none" stroke="#000000" d="M1472,-122.1061C1472,-141.3391 1472,-169 1472,-169 1472,-169 936.745,-169 936.745,-169"/>
<polygon fill="#000000" stroke="#000000" points="936.745,-165.5001 926.745,-169 936.745,-172.5001 936.745,-165.5001"/>
</g>
<!-- MyEventsComponent -->
<g id="node4" class="node">
<title>MyEventsComponent</title>
<polygon fill="#ffffb3" stroke="#000000" points="1388.3795,-122 1249.6205,-122 1249.6205,-86 1388.3795,-86 1388.3795,-122"/>
<text text-anchor="middle" x="1319" y="-99.8" font-family="Times,serif" font-size="14.00" fill="#000000">MyEventsComponent</text>
</g>
<!-- MyEventsComponent&#45;&gt;AppModule -->
<g id="edge4" class="edge">
<title>MyEventsComponent&#45;&gt;AppModule</title>
<path fill="none" stroke="#000000" d="M1319,-122.0225C1319,-139.3734 1319,-163 1319,-163 1319,-163 937.0081,-163 937.0081,-163"/>
<polygon fill="#000000" stroke="#000000" points="937.0081,-159.5001 927.0081,-163 937.0081,-166.5001 937.0081,-159.5001"/>
</g>
<!-- MyConfigComponent -->
<g id="node5" class="node">
<title>MyConfigComponent</title>
<polygon fill="#ffffb3" stroke="#000000" points="1231.6652,-122 1092.3348,-122 1092.3348,-86 1231.6652,-86 1231.6652,-122"/>
<text text-anchor="middle" x="1162" y="-99.8" font-family="Times,serif" font-size="14.00" fill="#000000">MyConfigComponent</text>
</g>
<!-- MyConfigComponent&#45;&gt;AppModule -->
<g id="edge5" class="edge">
<title>MyConfigComponent&#45;&gt;AppModule</title>
<path fill="none" stroke="#000000" d="M1162,-122.2396C1162,-137.5706 1162,-157 1162,-157 1162,-157 936.7696,-157 936.7696,-157"/>
<polygon fill="#000000" stroke="#000000" points="936.7696,-153.5001 926.7696,-157 936.7696,-160.5001 936.7696,-153.5001"/>
</g>
<!-- BindingsConfigFormComponent -->
<g id="node6" class="node">
<title>BindingsConfigFormComponent</title>
<polygon fill="#ffffb3" stroke="#000000" points="1074.6164,-122 873.3836,-122 873.3836,-86 1074.6164,-86 1074.6164,-122"/>
<text text-anchor="middle" x="974" y="-99.8" font-family="Times,serif" font-size="14.00" fill="#000000">BindingsConfigFormComponent</text>
</g>
<!-- BindingsConfigFormComponent&#45;&gt;AppModule -->
<g id="edge6" class="edge">
<title>BindingsConfigFormComponent&#45;&gt;AppModule</title>
<path fill="none" stroke="#000000" d="M900.135,-122.1061C900.135,-122.1061 900.135,-140.991 900.135,-140.991"/>
<polygon fill="#000000" stroke="#000000" points="896.6351,-140.9909 900.135,-150.991 903.6351,-140.991 896.6351,-140.9909"/>
</g>
<!-- AppComponent  -->
<g id="node14" class="node">
<title>AppComponent </title>
<polygon fill="#80b1d3" stroke="#000000" points="939.439,-252 830.561,-252 830.561,-216 939.439,-216 939.439,-252"/>
<text text-anchor="middle" x="885" y="-229.8" font-family="Times,serif" font-size="14.00" fill="#000000">AppComponent </text>
</g>
<!-- AppModule&#45;&gt;AppComponent  -->
<g id="edge13" class="edge">
<title>AppModule&#45;&gt;AppComponent </title>
<path fill="none" stroke="#000000" stroke-dasharray="1,5" d="M885,-187.1061C885,-187.1061 885,-205.991 885,-205.991"/>
<polygon fill="#000000" stroke="#000000" points="881.5001,-205.9909 885,-215.991 888.5001,-205.991 881.5001,-205.9909"/>
</g>
<!-- BrowserModule -->
<g id="node8" class="node">
<title>BrowserModule</title>
<polygon fill="#8dd3c7" stroke="#000000" points="849.4734,-122 846.4734,-126 825.4734,-126 822.4734,-122 742.5266,-122 742.5266,-86 849.4734,-86 849.4734,-122"/>
<text text-anchor="middle" x="796" y="-99.8" font-family="Times,serif" font-size="14.00" fill="#000000">BrowserModule</text>
</g>
<!-- BrowserModule&#45;&gt;AppModule -->
<g id="edge7" class="edge">
<title>BrowserModule&#45;&gt;AppModule</title>
<path fill="none" stroke="#000000" d="M836.8512,-122.0908C836.8512,-145.1328 836.8512,-182 836.8512,-182 836.8512,-182 837.4806,-182 837.4806,-182"/>
<polygon fill="#000000" stroke="#000000" points="833.1458,-185.5002 843.1458,-182 833.1457,-178.5002 833.1458,-185.5002"/>
</g>
<!-- FormsModule -->
<g id="node9" class="node">
<title>FormsModule</title>
<polygon fill="#8dd3c7" stroke="#000000" points="724.8288,-122 721.8288,-126 700.8288,-126 697.8288,-122 629.1712,-122 629.1712,-86 724.8288,-86 724.8288,-122"/>
<text text-anchor="middle" x="677" y="-99.8" font-family="Times,serif" font-size="14.00" fill="#000000">FormsModule</text>
</g>
<!-- FormsModule&#45;&gt;AppModule -->
<g id="edge8" class="edge">
<title>FormsModule&#45;&gt;AppModule</title>
<path fill="none" stroke="#000000" d="M677,-122.2396C677,-137.5706 677,-157 677,-157 677,-157 832.9081,-157 832.9081,-157"/>
<polygon fill="#000000" stroke="#000000" points="832.9081,-160.5001 842.9081,-157 832.9081,-153.5001 832.9081,-160.5001"/>
</g>
<!-- HttpModule -->
<g id="node10" class="node">
<title>HttpModule</title>
<polygon fill="#8dd3c7" stroke="#000000" points="611.4387,-122 608.4387,-126 587.4387,-126 584.4387,-122 526.5613,-122 526.5613,-86 611.4387,-86 611.4387,-122"/>
<text text-anchor="middle" x="569" y="-99.8" font-family="Times,serif" font-size="14.00" fill="#000000">HttpModule</text>
</g>
<!-- HttpModule&#45;&gt;AppModule -->
<g id="edge9" class="edge">
<title>HttpModule&#45;&gt;AppModule</title>
<path fill="none" stroke="#000000" d="M569,-122.0336C569,-139.0597 569,-162 569,-162 569,-162 833.0376,-162 833.0376,-162"/>
<polygon fill="#000000" stroke="#000000" points="833.0377,-165.5001 843.0376,-162 833.0376,-158.5001 833.0377,-165.5001"/>
</g>
<!-- StarRatingModule.forRoot() -->
<g id="node11" class="node">
<title>StarRatingModule.forRoot()</title>
<polygon fill="#8dd3c7" stroke="#000000" points="508.8003,-122 505.8003,-126 484.8003,-126 481.8003,-122 333.1997,-122 333.1997,-86 508.8003,-86 508.8003,-122"/>
<text text-anchor="middle" x="421" y="-99.8" font-family="Times,serif" font-size="14.00" fill="#000000">StarRatingModule.forRoot()</text>
</g>
<!-- StarRatingModule.forRoot()&#45;&gt;AppModule -->
<g id="edge10" class="edge">
<title>StarRatingModule.forRoot()&#45;&gt;AppModule</title>
<path fill="none" stroke="#000000" d="M421,-122.2222C421,-140.8285 421,-167 421,-167 421,-167 833.0047,-167 833.0047,-167"/>
<polygon fill="#000000" stroke="#000000" points="833.0048,-170.5001 843.0047,-167 833.0047,-163.5001 833.0048,-170.5001"/>
</g>
<!-- AppRoutingModule -->
<g id="node12" class="node">
<title>AppRoutingModule</title>
<polygon fill="#8dd3c7" stroke="#000000" points="315.2744,-122 312.2744,-126 291.2744,-126 288.2744,-122 186.7256,-122 186.7256,-86 315.2744,-86 315.2744,-122"/>
<text text-anchor="middle" x="251" y="-99.8" font-family="Times,serif" font-size="14.00" fill="#000000">AppRoutingModule</text>
</g>
<!-- AppRoutingModule&#45;&gt;AppModule -->
<g id="edge11" class="edge">
<title>AppRoutingModule&#45;&gt;AppModule</title>
<path fill="none" stroke="#000000" d="M251,-122.2228C251,-142.3652 251,-172 251,-172 251,-172 832.9105,-172 832.9105,-172"/>
<polygon fill="#000000" stroke="#000000" points="832.9105,-175.5001 842.9105,-172 832.9105,-168.5001 832.9105,-175.5001"/>
</g>
<!-- ReactiveFormsModule -->
<g id="node13" class="node">
<title>ReactiveFormsModule</title>
<polygon fill="#8dd3c7" stroke="#000000" points="168.3047,-122 165.3047,-126 144.3047,-126 141.3047,-122 23.6953,-122 23.6953,-86 168.3047,-86 168.3047,-122"/>
<text text-anchor="middle" x="96" y="-99.8" font-family="Times,serif" font-size="14.00" fill="#000000">ReactiveFormsModule</text>
</g>
<!-- ReactiveFormsModule&#45;&gt;AppModule -->
<g id="edge12" class="edge">
<title>ReactiveFormsModule&#45;&gt;AppModule</title>
<path fill="none" stroke="#000000" d="M96,-122.0449C96,-143.6623 96,-177 96,-177 96,-177 833.137,-177 833.137,-177"/>
<polygon fill="#000000" stroke="#000000" points="833.137,-180.5001 843.137,-177 833.137,-173.5001 833.137,-180.5001"/>
</g>
</g>
</svg>
