<svg style="position: absolute; width: 0; height: 0; overflow: hidden;" version="1.1" xmlns="http://www.w3.org/2000/svg" xmlns:xlink="http://www.w3.org/1999/xlink">
<defs>

<symbol id="star" viewBox="0 0 34 32">
<title>star</title>
<path class="path1" d="M33.412 12.395l-11.842-1.021-4.628-10.904-4.628 10.92-11.842 1.005 8.993 7.791-2.701 11.579 10.179-6.144 10.179 6.144-2.685-11.579 8.976-7.791zM16.941 22.541l-6.193 3.739 1.647-7.049-5.468-4.744 7.214-0.626 2.8-6.638 2.816 6.654 7.214 0.626-5.468 4.744 1.647 7.049-6.209-3.755z"></path>
</symbol>

    <symbol id="star-filled" viewBox="0 0 34 32">
<title>star-filled</title>
<path class="path1" d="M16.941 25.621l10.179 6.144-2.701-11.579 8.993-7.791-11.842-1.005-4.628-10.92-4.628 10.92-11.842 1.005 8.993 7.791-2.701 11.579z"></path>
</symbol>

</defs>
</svg>
