<?xml version="1.0" encoding="UTF-8" standalone="no"?>
<!DOCTYPE svg PUBLIC "-//W3C//DTD SVG 1.1//EN"
 "http://www.w3.org/Graphics/SVG/1.1/DTD/svg11.dtd">
<!-- Generated by graphviz version 2.40.1 (20161225.0304)
 -->
<!-- Title: dependencies Pages: 1 -->
<svg width="504pt" height="284pt"
 viewBox="0.00 0.00 504.00 284.00" xmlns="http://www.w3.org/2000/svg" xmlns:xlink="http://www.w3.org/1999/xlink">
<g id="graph0" class="graph" transform="scale(1 1) rotate(0) translate(4 280)">
<title>dependencies</title>
<polygon fill="#ffffff" stroke="transparent" points="-4,4 -4,-280 500,-280 500,4 -4,4"/>
<text text-anchor="start" x="227.0091" y="-42.4" font-family="sans-serif" font-weight="bold" font-size="14.00" fill="#000000">Legend</text>
<polygon fill="#ffffb3" stroke="transparent" points="14,-10 14,-30 34,-30 34,-10 14,-10"/>
<text text-anchor="start" x="37.629" y="-15.4" font-family="sans-serif" font-size="14.00" fill="#000000"> &#160;Declarations</text>
<polygon fill="#8dd3c7" stroke="transparent" points="127,-10 127,-30 147,-30 147,-10 127,-10"/>
<text text-anchor="start" x="150.7251" y="-15.4" font-family="sans-serif" font-size="14.00" fill="#000000"> &#160;Module</text>
<polygon fill="#80b1d3" stroke="transparent" points="213,-10 213,-30 233,-30 233,-10 213,-10"/>
<text text-anchor="start" x="236.7812" y="-15.4" font-family="sans-serif" font-size="14.00" fill="#000000"> &#160;Bootstrap</text>
<polygon fill="#fdb462" stroke="transparent" points="310,-10 310,-30 330,-30 330,-10 310,-10"/>
<text text-anchor="start" x="333.6732" y="-15.4" font-family="sans-serif" font-size="14.00" fill="#000000"> &#160;Providers</text>
<polygon fill="#fb8072" stroke="transparent" points="406,-10 406,-30 426,-30 426,-10 406,-10"/>
<text text-anchor="start" x="429.7258" y="-15.4" font-family="sans-serif" font-size="14.00" fill="#000000"> &#160;Exports</text>
<g id="clust1" class="cluster">
<title>cluster_StarRatingModule</title>
<polygon fill="none" stroke="#000000" stroke-dasharray="1,5" points="125,-70 125,-268 371,-268 371,-70 125,-70"/>
</g>
<g id="clust2" class="cluster">
<title>cluster_StarRatingModule_declarations</title>
<polygon fill="none" stroke="#000000" points="269,-78 269,-130 363,-130 363,-78 269,-78"/>
</g>
<g id="clust4" class="cluster">
<title>cluster_StarRatingModule_imports</title>
<polygon fill="none" stroke="#000000" points="133,-78 133,-130 261,-130 261,-78 133,-78"/>
</g>
<g id="clust5" class="cluster">
<title>cluster_StarRatingModule_exports</title>
<polygon fill="none" stroke="#000000" points="201,-208 201,-260 299,-260 299,-208 201,-208"/>
</g>
<!-- EXPORTS -->
<g id="node1" class="node">
<title>EXPORTS</title>
<polygon fill="#ffffb3" stroke="#000000" points="355.2205,-122 276.7795,-122 276.7795,-86 355.2205,-86 355.2205,-122"/>
<text text-anchor="middle" x="316" y="-99.8" font-family="Times,serif" font-size="14.00" fill="#000000">EXPORTS</text>
</g>
<!-- StarRatingModule -->
<g id="node2" class="node">
<title>StarRatingModule</title>
<polygon fill="#8dd3c7" stroke="#000000" points="309.9314,-187 306.9314,-191 285.9314,-191 282.9314,-187 190.0686,-187 190.0686,-151 309.9314,-151 309.9314,-187"/>
<text text-anchor="middle" x="250" y="-164.8" font-family="Times,serif" font-size="14.00" fill="#000000">StarRatingModule</text>
</g>
<!-- EXPORTS&#45;&gt;StarRatingModule -->
<g id="edge1" class="edge">
<title>EXPORTS&#45;&gt;StarRatingModule</title>
<path fill="none" stroke="#000000" d="M293.3026,-122.1061C293.3026,-122.1061 293.3026,-140.991 293.3026,-140.991"/>
<polygon fill="#000000" stroke="#000000" points="289.8027,-140.9909 293.3026,-150.991 296.8027,-140.991 289.8027,-140.9909"/>
</g>
<!-- EXPORTS  -->
<g id="node4" class="node">
<title>EXPORTS </title>
<polygon fill="#fb8072" stroke="#000000" points="290.7207,-252 209.2793,-252 209.2793,-216 290.7207,-216 290.7207,-252"/>
<text text-anchor="middle" x="250" y="-229.8" font-family="Times,serif" font-size="14.00" fill="#000000">EXPORTS </text>
</g>
<!-- StarRatingModule&#45;&gt;EXPORTS  -->
<g id="edge3" class="edge">
<title>StarRatingModule&#45;&gt;EXPORTS </title>
<path fill="none" stroke="#000000" stroke-dasharray="5,2" d="M250,-187.1061C250,-187.1061 250,-205.991 250,-205.991"/>
<polygon fill="#000000" stroke="#000000" points="246.5001,-205.9909 250,-215.991 253.5001,-205.991 246.5001,-205.9909"/>
</g>
<!-- CommonModule -->
<g id="node3" class="node">
<title>CommonModule</title>
<polygon fill="#8dd3c7" stroke="#000000" points="252.6681,-122 249.6681,-126 228.6681,-126 225.6681,-122 141.3319,-122 141.3319,-86 252.6681,-86 252.6681,-122"/>
<text text-anchor="middle" x="197" y="-99.8" font-family="Times,serif" font-size="14.00" fill="#000000">CommonModule</text>
</g>
<!-- CommonModule&#45;&gt;StarRatingModule -->
<g id="edge2" class="edge">
<title>CommonModule&#45;&gt;StarRatingModule</title>
<path fill="none" stroke="#000000" d="M221.5593,-122.1061C221.5593,-122.1061 221.5593,-140.991 221.5593,-140.991"/>
<polygon fill="#000000" stroke="#000000" points="218.0593,-140.9909 221.5593,-150.991 225.0593,-140.991 218.0593,-140.9909"/>
</g>
</g>
</svg>
